<svg xmlns="http://www.w3.org/2000/svg" width="1200" height="320" viewBox="0 0 1200 320" role="img" aria-label="l4b.dev">
<title>l4b.dev</title>
<style>
@keyframes show{to{opacity:1}}
@keyframes move{from{transform:translateX(0px)}to{transform:translateX(252px)}}
@keyframes blink{0%,49%{opacity:1}50%,100%{opacity:0}}
.t{opacity:0;animation:show .01s forwards}
.cur{animation:move 1.2s steps(3,jump-start) .6s forwards}
.blink{animation:blink 1.1s steps(1) infinite}
.tag{opacity:0;animation:show .01s 2s forwards}
@media (prefers-reduced-motion:reduce){.t,.tag{opacity:1;animation:none}.cur{transform:translateX(252px);animation:none}}
</style>
<rect width="1200" height="320" rx="24" fill="#131417"/>
<path fill="#8E8E93" d="M81.508 81.37V79.446Q81.508 77.86 82.483 76.924Q83.458 75.988 85.07 75.988Q86.084 75.988 86.773 76.326Q87.462 76.664 87.94300000000001 77.184Q88.424 77.70400000000001 88.801 78.224Q89.178 78.744 89.58099999999999 79.095Q89.984 79.446 90.504 79.446Q91.05 79.446 91.336 79.108Q91.622 78.77 91.622 78.146V76.3H94.092V78.224Q94.092 79.784 93.13 80.733Q92.168 81.682 90.53 81.682Q89.516 81.682 88.827 81.344Q88.138 81.006 87.65700000000001 80.486Q87.176 79.96600000000001 86.799 79.446Q86.422 78.926 86.019 78.575Q85.616 78.224 85.096 78.224Q84.55 78.224 84.264 78.549Q83.978 78.874 83.978 79.524V81.37Z M97.368 90.86 106.52 66.42H109.43199999999999L100.28 90.86Z M117.57 88.26Q115.33399999999999 88.26 114.047 87.10300000000001Q112.75999999999999 85.946 112.75999999999999 83.944Q112.75999999999999 81.916 114.125 80.759Q115.49 79.602 117.88199999999999 79.602H121.85999999999999V78.276Q121.85999999999999 77.106 121.13199999999998 76.45599999999999Q120.40399999999998 75.806 119.07799999999999 75.806Q117.90799999999999 75.806 117.12799999999999 76.31299999999999Q116.34799999999998 76.82 116.21799999999999 77.652H113.46199999999999Q113.69599999999998 75.728 115.243 74.584Q116.78999999999999 73.44 119.15599999999999 73.44Q121.704 73.44 123.18599999999999 74.727Q124.66799999999999 76.014 124.66799999999999 78.224V88.0H121.93799999999999V85.374H121.46999999999998L121.93799999999999 84.854Q121.93799999999999 86.414 120.74199999999999 87.337Q119.54599999999999 88.26 117.57 88.26ZM118.40199999999999 86.102Q119.90999999999998 86.102 120.88499999999999 85.33500000000001Q121.85999999999999 84.568 121.85999999999999 83.372V81.5H117.93399999999998Q116.84199999999998 81.5 116.20499999999998 82.098Q115.56799999999998 82.696 115.56799999999998 83.736Q115.56799999999998 84.828 116.32199999999999 85.465Q117.076 86.102 118.40199999999999 86.102Z M132.338 88.0V77.756H128.28199999999998V75.208H132.338V72.894Q132.338 71.1 133.48199999999997 70.06Q134.62599999999998 69.02 136.60199999999998 69.02H140.78799999999998V71.516H136.654Q135.926 71.516 135.52299999999997 71.88Q135.11999999999998 72.244 135.11999999999998 72.92V75.208H140.78799999999998V77.756H135.11999999999998V88.0Z M151.76 88.0Q149.80999999999997 88.0 148.71799999999996 86.934Q147.62599999999998 85.868 147.62599999999998 83.97V76.248H143.67399999999998V73.7H147.62599999999998V69.67H150.43399999999997V73.7H156.02399999999997V76.248H150.43399999999997V83.97Q150.43399999999997 85.452 151.86399999999998 85.452H155.76399999999998V88.0Z M165.79999999999998 88.26Q164.05799999999996 88.26 162.74499999999995 87.571Q161.43199999999996 86.882 160.72999999999996 85.634Q160.02799999999996 84.386 160.02799999999996 82.722V78.978Q160.02799999999996 77.288 160.72999999999996 76.053Q161.43199999999996 74.818 162.74499999999995 74.12899999999999Q164.05799999999996 73.44 165.79999999999998 73.44Q167.56799999999998 73.44 168.868 74.12899999999999Q170.16799999999998 74.818 170.86999999999998 76.053Q171.57199999999997 77.288 171.57199999999997 78.978V81.526H162.73199999999997V82.722Q162.73199999999997 84.308 163.52499999999998 85.14Q164.31799999999998 85.972 165.82599999999996 85.972Q167.04799999999997 85.972 167.80199999999996 85.543Q168.55599999999998 85.114 168.73799999999997 84.282H171.51999999999998Q171.20799999999997 86.102 169.64799999999997 87.18100000000001Q168.08799999999997 88.26 165.79999999999998 88.26ZM168.86799999999997 79.836V78.952Q168.86799999999997 77.392 168.08799999999997 76.53399999999999Q167.30799999999996 75.676 165.79999999999998 75.676Q164.31799999999998 75.676 163.52499999999998 76.53399999999999Q162.73199999999997 77.392 162.73199999999997 78.978V79.628L169.07599999999996 79.602Z M176.25199999999995 88.0V73.7H178.95599999999996V76.43H179.63199999999998L178.77399999999997 78.12Q178.77399999999997 75.806 179.78799999999995 74.62299999999999Q180.80199999999996 73.44 182.80399999999997 73.44Q185.09199999999996 73.44 186.43099999999995 74.857Q187.76999999999995 76.274 187.76999999999995 78.744V79.706H184.88399999999996V78.978Q184.88399999999996 77.444 184.11699999999996 76.625Q183.34999999999997 75.806 181.97199999999998 75.806Q180.59399999999997 75.806 179.82699999999997 76.638Q179.05999999999997 77.47 179.05999999999997 78.978V88.0Z M192.83999999999995 80.694V78.146H201.15999999999997V80.694Z M206.98399999999995 88.0V69.02H209.79199999999994V73.7L209.76599999999996 76.43H210.44199999999995L209.76599999999996 77.08Q209.76599999999996 75.364 210.77999999999997 74.402Q211.79399999999995 73.44 213.58799999999997 73.44Q215.71999999999994 73.44 216.99399999999994 74.805Q218.26799999999994 76.17 218.26799999999994 78.484V88.0H215.45999999999995V78.796Q215.45999999999995 77.392 214.70599999999996 76.612Q213.95199999999994 75.832 212.65199999999996 75.832Q211.32599999999996 75.832 210.55899999999997 76.651Q209.79199999999994 77.47 209.79199999999994 78.978V88.0Z M228.19999999999996 88.234Q226.43199999999996 88.234 225.13199999999995 87.55799999999999Q223.83199999999994 86.882 223.12999999999994 85.634Q222.42799999999994 84.386 222.42799999999994 82.696V79.004Q222.42799999999994 77.288 223.12999999999994 76.053Q223.83199999999994 74.818 225.13199999999995 74.142Q226.43199999999996 73.46600000000001 228.19999999999996 73.46600000000001Q229.96799999999996 73.46600000000001 231.26799999999997 74.142Q232.56799999999996 74.818 233.26999999999995 76.053Q233.97199999999995 77.288 233.97199999999995 79.004V82.696Q233.97199999999995 84.386 233.26999999999995 85.634Q232.56799999999996 86.882 231.26799999999997 87.55799999999999Q229.96799999999996 88.234 228.19999999999996 88.234ZM228.19999999999996 85.764Q229.62999999999994 85.764 230.40999999999994 84.971Q231.18999999999994 84.178 231.18999999999994 82.696V79.004Q231.18999999999994 77.496 230.40999999999994 76.71600000000001Q229.62999999999994 75.936 228.19999999999996 75.936Q226.79599999999994 75.936 226.00299999999993 76.71600000000001Q225.20999999999995 77.496 225.20999999999995 79.004V82.696Q225.20999999999995 84.178 226.00299999999993 84.971Q226.79599999999994 85.764 228.19999999999996 85.764Z M243.77399999999994 88.26Q241.19999999999993 88.26 239.66599999999994 86.765Q238.13199999999995 85.27 238.13199999999995 82.696V73.7H240.93999999999994V82.696Q240.93999999999994 84.178 241.69399999999996 84.997Q242.44799999999995 85.816 243.77399999999994 85.816Q245.12599999999995 85.816 245.89299999999994 84.997Q246.65999999999994 84.178 246.65999999999994 82.696V73.7H249.46799999999993V82.696Q249.46799999999993 85.27 247.92099999999994 86.765Q246.37399999999994 88.26 243.77399999999994 88.26Z M254.25199999999992 88.0V73.7H256.95599999999996V76.43H257.63199999999995L256.77399999999994 78.12Q256.77399999999994 75.806 257.78799999999995 74.62299999999999Q258.80199999999996 73.44 260.8039999999999 73.44Q263.0919999999999 73.44 264.4309999999999 74.857Q265.7699999999999 76.274 265.7699999999999 78.744V79.706H262.88399999999996V78.978Q262.88399999999996 77.444 262.11699999999996 76.625Q261.3499999999999 75.806 259.9719999999999 75.806Q258.59399999999994 75.806 257.82699999999994 76.638Q257.05999999999995 77.47 257.05999999999995 78.978V88.0Z M274.5059999999999 88.234Q272.9719999999999 88.234 271.81499999999994 87.74Q270.65799999999996 87.246 269.99499999999995 86.375Q269.33199999999994 85.504 269.22799999999995 84.308H272.03599999999994Q272.13999999999993 85.01 272.78999999999996 85.439Q273.43999999999994 85.868 274.5059999999999 85.868H275.6239999999999Q276.8979999999999 85.868 277.5479999999999 85.348Q278.1979999999999 84.828 278.1979999999999 83.97Q278.1979999999999 83.138 277.61299999999994 82.65700000000001Q277.0279999999999 82.176 275.88399999999996 82.02L274.03799999999995 81.734Q271.74999999999994 81.37 270.67099999999994 80.42099999999999Q269.5919999999999 79.472 269.5919999999999 77.6Q269.5919999999999 75.624 270.8789999999999 74.545Q272.16599999999994 73.46600000000001 274.68799999999993 73.46600000000001H275.67599999999993Q277.9119999999999 73.46600000000001 279.2509999999999 74.493Q280.5899999999999 75.52 280.77199999999993 77.236H277.96399999999994Q277.85999999999996 76.612 277.275 76.222Q276.68999999999994 75.832 275.67599999999993 75.832H274.68799999999993Q273.46599999999995 75.832 272.9069999999999 76.287Q272.34799999999996 76.742 272.34799999999996 77.626Q272.34799999999996 78.406 272.842 78.796Q273.33599999999996 79.186 274.3759999999999 79.342L276.27399999999994 79.654Q278.69199999999995 79.992 279.823 80.993Q280.95399999999995 81.994 280.95399999999995 83.892Q280.95399999999995 85.946 279.61499999999995 87.09Q278.27599999999995 88.234 275.6239999999999 88.234Z M305.472 91.64V88.234Q302.976 88.026 301.546 86.63499999999999Q300.116 85.244 300.09 82.982H302.87199999999996Q302.87199999999996 84.1 303.561 84.815Q304.25 85.53 305.472 85.712V79.576L304.87399999999997 79.42Q302.794 78.822 301.663 77.379Q300.532 75.936 300.532 73.934Q300.532 71.776 301.85799999999995 70.398Q303.18399999999997 69.02 305.472 68.812V65.38H307.058V68.786Q309.346 68.994 310.698 70.35900000000001Q312.04999999999995 71.724 312.07599999999996 73.908H309.268Q309.268 72.842 308.69599999999997 72.15299999999999Q308.12399999999997 71.464 307.058 71.282V77.132L307.99399999999997 77.418Q310.07399999999996 77.99 311.192 79.446Q312.31 80.902 312.31 82.93Q312.31 85.14 310.89300000000003 86.57Q309.476 88.0 307.058 88.234V91.64ZM307.058 85.738Q308.22799999999995 85.556 308.87799999999993 84.854Q309.52799999999996 84.152 309.52799999999996 83.034Q309.52799999999996 81.89 308.813 81.084Q308.09799999999996 80.278 306.82399999999996 80.07L307.058 79.524ZM305.472 77.912V71.282Q304.43199999999996 71.464 303.87299999999993 72.101Q303.31399999999996 72.738 303.31399999999996 73.752Q303.31399999999996 75.0 304.133 75.845Q304.952 76.69 306.46 76.846Z"/>
<path fill="#4C9BFF" d="M90.5 222.65V202.25L131.9 184.1Q134.9 182.75 138.2 181.85Q141.5 180.95 143.45 180.65Q141.5 180.35 138.2 179.52499999999998Q134.9 178.7 131.9 177.35L90.5 159.2V138.65L159.5 169.85V191.3Z"/>
<path class="t" style="animation-delay:0.6s" fill="#F3F0E8" d="M240.5 230.0Q231.8 230.0 225.2 226.325Q218.6 222.65 214.925 216.05Q211.25 209.45 211.25 200.75V140.75H185.75V120.5H233.75V200.75Q233.75 204.8 236.225 207.275Q238.7 209.75 242.75 209.75H266.75V230.0Z"/><path class="t" style="animation-delay:1.0s" fill="#F3F0E8" d="M322.25 230.0V209.9H274.25V178.55L315.35 120.5H340.85L295.25 184.85V190.4H322.25V167.0H344.75V230.0Z"/><path class="t" style="animation-delay:1.4s" fill="#F3F0E8" d="M403.55 231.5Q393.35 231.5 387.5 225.575Q381.65 219.65 381.65 209.0L386.9 214.25H381.65V230.0H359.9V120.5H382.4V143.0L381.65 163.25H386.9L381.65 168.5Q381.65 157.85000000000002 387.5 151.925Q393.35 146.0 403.55 146.0Q416.0 146.0 423.5 154.775Q431.0 163.55 431.0 178.25V199.25Q431.0 214.1 423.5 222.8Q416.0 231.5 403.55 231.5ZM395.45 212.0Q401.75 212.0 405.125 208.475Q408.5 204.95 408.5 198.5V179.0Q408.5 172.55 405.125 169.025Q401.75 165.5 395.45 165.5Q389.3 165.5 385.85 169.025Q382.4 172.55 382.4 179.0V198.5Q382.4 204.95 385.85 208.475Q389.3 212.0 395.45 212.0Z"/>
<g class="cur"><rect class="blink" x="188" y="214" width="52" height="21" fill="#4C9BFF"/></g>
<g class="tag"><path fill="#8E8E93" d="M88.814 290.26Q87.04599999999999 290.26 86.006 289.28499999999997Q84.966 288.31 84.966 286.62L85.564 287.27H84.966V290.0H82.184V271.02H84.992V275.102L84.914 278.43H85.564L84.966 279.08Q84.966 277.39 86.019 276.41499999999996Q87.072 275.44 88.814 275.44Q90.972 275.44 92.27199999999999 276.89599999999996Q93.572 278.352 93.572 280.848V284.878Q93.572 287.348 92.27199999999999 288.804Q90.972 290.26 88.814 290.26ZM87.852 287.816Q89.23 287.816 90.00999999999999 287.023Q90.78999999999999 286.23 90.78999999999999 284.722V280.978Q90.78999999999999 279.47 90.00999999999999 278.677Q89.23 277.884 87.852 277.884Q86.526 277.884 85.759 278.703Q84.992 279.522 84.992 280.978V284.722Q84.992 286.178 85.759 286.99699999999996Q86.526 287.816 87.852 287.816Z M103.374 290.26Q100.8 290.26 99.26599999999999 288.765Q97.732 287.27 97.732 284.696V275.7H100.53999999999999V284.696Q100.53999999999999 286.178 101.29399999999998 286.99699999999996Q102.04799999999999 287.816 103.374 287.816Q104.726 287.816 105.493 286.99699999999996Q106.25999999999999 286.178 106.25999999999999 284.696V275.7H109.068V284.696Q109.068 287.27 107.52099999999999 288.765Q105.97399999999999 290.26 103.374 290.26Z M113.30599999999998 290.0V287.452H118.32399999999998V278.248H113.95599999999999V275.7H121.05399999999999V287.452H125.65599999999999V290.0ZM119.41599999999998 273.23Q118.50599999999999 273.23 117.95999999999998 272.749Q117.41399999999999 272.26800000000003 117.41399999999999 271.462Q117.41399999999999 270.63 117.95999999999998 270.149Q118.50599999999999 269.668 119.41599999999998 269.668Q120.32599999999998 269.668 120.87199999999999 270.149Q121.41799999999998 270.63 121.41799999999998 271.462Q121.41799999999998 272.26800000000003 120.87199999999999 272.749Q120.32599999999998 273.23 119.41599999999998 273.23Z M136.654 290.0Q135.32799999999997 290.0 134.33999999999997 289.467Q133.35199999999998 288.934 132.79299999999998 287.946Q132.23399999999998 286.958 132.23399999999998 285.658V273.568H127.55399999999999V271.02H135.04199999999997V285.658Q135.04199999999997 286.49 135.51 286.971Q135.97799999999998 287.452 136.784 287.452H141.20399999999998V290.0Z M149.18599999999998 290.26Q147.02799999999996 290.26 145.72799999999995 288.804Q144.42799999999997 287.348 144.42799999999997 284.878V280.848Q144.42799999999997 278.352 145.72799999999995 276.89599999999996Q147.02799999999996 275.44 149.18599999999998 275.44Q150.95399999999998 275.44 151.99399999999997 276.41499999999996Q153.034 277.39 153.034 279.08L152.43599999999998 278.43H153.08599999999998L153.00799999999998 275.102V271.02H155.81599999999997V290.0H153.034V287.27H152.43599999999998L153.034 286.62Q153.034 288.31 151.99399999999997 289.28499999999997Q150.95399999999998 290.26 149.18599999999998 290.26ZM150.14799999999997 287.816Q151.474 287.816 152.24099999999999 286.99699999999996Q153.00799999999998 286.178 153.00799999999998 284.722V280.978Q153.00799999999998 279.522 152.24099999999999 278.703Q151.474 277.884 150.14799999999997 277.884Q148.76999999999998 277.884 147.98999999999998 278.677Q147.20999999999998 279.47 147.20999999999998 280.978V284.722Q147.20999999999998 286.23 147.98999999999998 287.023Q148.76999999999998 287.816 150.14799999999997 287.816Z M181.39999999999998 283.292Q180.35999999999996 283.292 179.73599999999996 282.681Q179.11199999999997 282.07 179.11199999999997 281.03Q179.11199999999997 279.964 179.73599999999996 279.327Q180.35999999999996 278.69 181.39999999999998 278.69Q182.46599999999995 278.69 183.07699999999994 279.327Q183.68799999999996 279.964 183.68799999999996 281.03Q183.68799999999996 282.07 183.07699999999994 282.681Q182.46599999999995 283.292 181.39999999999998 283.292Z M213.61399999999995 290.26Q211.84599999999995 290.26 210.80599999999995 289.28499999999997Q209.76599999999996 288.31 209.76599999999996 286.62L210.36399999999995 287.27H209.76599999999996V290.0H206.98399999999995V271.02H209.79199999999994V275.102L209.71399999999994 278.43H210.36399999999995L209.76599999999996 279.08Q209.76599999999996 277.39 210.81899999999996 276.41499999999996Q211.87199999999996 275.44 213.61399999999995 275.44Q215.77199999999996 275.44 217.07199999999995 276.89599999999996Q218.37199999999996 278.352 218.37199999999996 280.848V284.878Q218.37199999999996 287.348 217.07199999999995 288.804Q215.77199999999996 290.26 213.61399999999995 290.26ZM212.65199999999996 287.816Q214.02999999999994 287.816 214.80999999999995 287.023Q215.58999999999995 286.23 215.58999999999995 284.722V280.978Q215.58999999999995 279.47 214.80999999999995 278.677Q214.02999999999994 277.884 212.65199999999996 277.884Q211.32599999999996 277.884 210.55899999999997 278.703Q209.79199999999994 279.522 209.79199999999994 280.978V284.722Q209.79199999999994 286.178 210.55899999999997 286.99699999999996Q211.32599999999996 287.816 212.65199999999996 287.816Z M223.05199999999994 290.0V275.7H225.75599999999994V278.43H226.43199999999996L225.57399999999996 280.12Q225.57399999999996 277.806 226.58799999999997 276.623Q227.60199999999995 275.44 229.60399999999996 275.44Q231.89199999999994 275.44 233.23099999999994 276.85699999999997Q234.56999999999994 278.274 234.56999999999994 280.744V281.706H231.68399999999994V280.978Q231.68399999999994 279.444 230.91699999999994 278.625Q230.14999999999995 277.806 228.77199999999993 277.806Q227.39399999999995 277.806 226.62699999999995 278.63800000000003Q225.85999999999996 279.47 225.85999999999996 280.978V290.0Z M243.79999999999995 290.26Q242.05799999999994 290.26 240.74499999999995 289.571Q239.43199999999993 288.882 238.72999999999993 287.634Q238.02799999999993 286.386 238.02799999999993 284.722V280.978Q238.02799999999993 279.288 238.72999999999993 278.053Q239.43199999999993 276.818 240.74499999999995 276.129Q242.05799999999994 275.44 243.79999999999995 275.44Q245.56799999999996 275.44 246.86799999999994 276.129Q248.16799999999995 276.818 248.86999999999995 278.053Q249.57199999999995 279.288 249.57199999999995 280.978V283.526H240.73199999999994V284.722Q240.73199999999994 286.308 241.52499999999995 287.14Q242.31799999999996 287.972 243.82599999999994 287.972Q245.04799999999994 287.972 245.80199999999996 287.543Q246.55599999999995 287.114 246.73799999999994 286.282H249.51999999999995Q249.20799999999994 288.102 247.64799999999994 289.181Q246.08799999999994 290.26 243.79999999999995 290.26ZM246.86799999999994 281.836V280.952Q246.86799999999994 279.392 246.08799999999994 278.534Q245.30799999999994 277.676 243.79999999999995 277.676Q242.31799999999996 277.676 241.52499999999995 278.534Q240.73199999999994 279.392 240.73199999999994 280.978V281.628L247.07599999999994 281.602Z M257.9699999999999 290.26Q255.73399999999992 290.26 254.44699999999995 289.103Q253.15999999999994 287.946 253.15999999999994 285.944Q253.15999999999994 283.916 254.52499999999992 282.759Q255.88999999999993 281.602 258.2819999999999 281.602H262.25999999999993V280.276Q262.25999999999993 279.106 261.5319999999999 278.456Q260.8039999999999 277.806 259.47799999999995 277.806Q258.30799999999994 277.806 257.5279999999999 278.313Q256.74799999999993 278.82 256.61799999999994 279.652H253.86199999999994Q254.09599999999995 277.728 255.64299999999994 276.584Q257.18999999999994 275.44 259.5559999999999 275.44Q262.1039999999999 275.44 263.5859999999999 276.727Q265.0679999999999 278.014 265.0679999999999 280.224V290.0H262.33799999999997V287.374H261.86999999999995L262.33799999999997 286.854Q262.33799999999997 288.414 261.14199999999994 289.337Q259.9459999999999 290.26 257.9699999999999 290.26ZM258.80199999999996 288.102Q260.30999999999995 288.102 261.28499999999997 287.335Q262.25999999999993 286.568 262.25999999999993 285.372V283.5H258.33399999999995Q257.24199999999996 283.5 256.60499999999996 284.098Q255.96799999999993 284.696 255.96799999999993 285.736Q255.96799999999993 286.828 256.7219999999999 287.465Q257.47599999999994 288.102 258.80199999999996 288.102Z M269.46199999999993 290.0V271.02H272.2699999999999V281.446H274.7919999999999L278.5879999999999 275.7H281.75999999999993L277.2099999999999 282.564L281.8379999999999 290.0H278.6139999999999L274.7919999999999 283.864H272.2699999999999V290.0Z M306.2 283.292Q305.15999999999997 283.292 304.53599999999994 282.681Q303.912 282.07 303.912 281.03Q303.912 279.964 304.53599999999994 279.327Q305.15999999999997 278.69 306.2 278.69Q307.26599999999996 278.69 307.87699999999995 279.327Q308.488 279.964 308.488 281.03Q308.488 282.07 307.87699999999995 282.681Q307.26599999999996 283.292 306.2 283.292Z M332.252 290.0V275.7H334.956V278.43H335.632L334.774 280.12Q334.774 277.806 335.788 276.623Q336.802 275.44 338.80400000000003 275.44Q341.09200000000004 275.44 342.43100000000004 276.85699999999997Q343.77000000000004 278.274 343.77000000000004 280.744V281.706H340.884V280.978Q340.884 279.444 340.117 278.625Q339.35 277.806 337.97200000000004 277.806Q336.59400000000005 277.806 335.827 278.63800000000003Q335.06 279.47 335.06 280.978V290.0Z M353.00000000000006 290.26Q351.25800000000004 290.26 349.94500000000005 289.571Q348.63200000000006 288.882 347.93000000000006 287.634Q347.22800000000007 286.386 347.22800000000007 284.722V280.978Q347.22800000000007 279.288 347.93000000000006 278.053Q348.63200000000006 276.818 349.94500000000005 276.129Q351.25800000000004 275.44 353.00000000000006 275.44Q354.76800000000003 275.44 356.06800000000004 276.129Q357.36800000000005 276.818 358.07000000000005 278.053Q358.77200000000005 279.288 358.77200000000005 280.978V283.526H349.9320000000001V284.722Q349.9320000000001 286.308 350.725 287.14Q351.51800000000003 287.972 353.02600000000007 287.972Q354.24800000000005 287.972 355.00200000000007 287.543Q355.75600000000003 287.114 355.93800000000005 286.282H358.72Q358.4080000000001 288.102 356.84800000000007 289.181Q355.28800000000007 290.26 353.00000000000006 290.26ZM356.06800000000004 281.836V280.952Q356.06800000000004 279.392 355.288 278.534Q354.50800000000004 277.676 353.00000000000006 277.676Q351.51800000000003 277.676 350.725 278.534Q349.9320000000001 279.392 349.9320000000001 280.978V281.628L356.27600000000007 281.602Z M362.9840000000001 294.68V275.7H365.7660000000001V278.43H366.3640000000001L365.7660000000001 279.08Q365.7660000000001 277.39 366.8190000000001 276.41499999999996Q367.87200000000007 275.44 369.64000000000004 275.44Q371.79800000000006 275.44 373.08500000000004 276.88300000000004Q374.37200000000007 278.326 374.37200000000007 280.822V284.852Q374.37200000000007 286.516 373.78700000000003 287.725Q373.20200000000006 288.934 372.14900000000006 289.597Q371.09600000000006 290.26 369.64000000000004 290.26Q367.8980000000001 290.26 366.8320000000001 289.28499999999997Q365.7660000000001 288.31 365.7660000000001 286.62L366.3640000000001 287.27H365.71400000000006L365.7920000000001 290.598V294.68ZM368.67800000000005 287.816Q370.05600000000004 287.816 370.8230000000001 287.023Q371.5900000000001 286.23 371.5900000000001 284.722V280.978Q371.5900000000001 279.47 370.8230000000001 278.677Q370.05600000000004 277.884 368.67800000000005 277.884Q367.3520000000001 277.884 366.5720000000001 278.703Q365.7920000000001 279.522 365.7920000000001 280.978V284.722Q365.7920000000001 286.178 366.5720000000001 286.99699999999996Q367.3520000000001 287.816 368.67800000000005 287.816Z M384.2000000000001 290.26Q382.4580000000001 290.26 381.1450000000001 289.571Q379.8320000000001 288.882 379.1300000000001 287.634Q378.4280000000001 286.386 378.4280000000001 284.722V280.978Q378.4280000000001 279.288 379.1300000000001 278.053Q379.8320000000001 276.818 381.1450000000001 276.129Q382.4580000000001 275.44 384.2000000000001 275.44Q385.9680000000001 275.44 387.2680000000001 276.129Q388.5680000000001 276.818 389.2700000000001 278.053Q389.9720000000001 279.288 389.9720000000001 280.978V283.526H381.1320000000001V284.722Q381.1320000000001 286.308 381.92500000000007 287.14Q382.7180000000001 287.972 384.2260000000001 287.972Q385.4480000000001 287.972 386.2020000000001 287.543Q386.9560000000001 287.114 387.1380000000001 286.282H389.9200000000001Q389.6080000000001 288.102 388.0480000000001 289.181Q386.4880000000001 290.26 384.2000000000001 290.26ZM387.2680000000001 281.836V280.952Q387.2680000000001 279.392 386.48800000000006 278.534Q385.7080000000001 277.676 384.2000000000001 277.676Q382.7180000000001 277.676 381.92500000000007 278.534Q381.1320000000001 279.392 381.1320000000001 280.978V281.628L387.4760000000001 281.602Z M398.3700000000001 290.26Q396.1340000000001 290.26 394.8470000000001 289.103Q393.5600000000001 287.946 393.5600000000001 285.944Q393.5600000000001 283.916 394.9250000000001 282.759Q396.29000000000013 281.602 398.68200000000013 281.602H402.66000000000014V280.276Q402.66000000000014 279.106 401.93200000000013 278.456Q401.2040000000001 277.806 399.8780000000001 277.806Q398.70800000000014 277.806 397.9280000000001 278.313Q397.14800000000014 278.82 397.0180000000001 279.652H394.2620000000001Q394.4960000000001 277.728 396.0430000000001 276.584Q397.5900000000001 275.44 399.95600000000013 275.44Q402.50400000000013 275.44 403.9860000000001 276.727Q405.46800000000013 278.014 405.46800000000013 280.224V290.0H402.7380000000001V287.374H402.2700000000001L402.7380000000001 286.854Q402.7380000000001 288.414 401.54200000000014 289.337Q400.3460000000001 290.26 398.3700000000001 290.26ZM399.2020000000001 288.102Q400.7100000000001 288.102 401.6850000000001 287.335Q402.66000000000014 286.568 402.66000000000014 285.372V283.5H398.7340000000001Q397.6420000000001 283.5 397.0050000000001 284.098Q396.3680000000001 284.696 396.3680000000001 285.736Q396.3680000000001 286.828 397.12200000000007 287.465Q397.8760000000001 288.102 399.2020000000001 288.102Z M416.96000000000015 290.0Q415.01000000000016 290.0 413.9180000000001 288.93399999999997Q412.82600000000014 287.868 412.82600000000014 285.97V278.248H408.87400000000014V275.7H412.82600000000014V271.67H415.6340000000001V275.7H421.22400000000016V278.248H415.6340000000001V285.97Q415.6340000000001 287.452 417.06400000000014 287.452H420.9640000000001V290.0Z"/>
<path fill="#8E8E93" d="M1020.654 290.0Q1019.328 290.0 1018.3399999999999 289.467Q1017.352 288.934 1016.7929999999999 287.946Q1016.2339999999999 286.958 1016.2339999999999 285.658V273.568H1011.554V271.02H1019.0419999999999V285.658Q1019.0419999999999 286.49 1019.51 286.971Q1019.978 287.452 1020.784 287.452H1025.204V290.0Z M1036.8 290.0V286.048H1028.2979999999998V281.836L1035.6819999999998 271.02H1038.802L1031.002 282.512V283.526H1036.8V279.08H1039.5819999999999V290.0Z M1050.8139999999999 290.26Q1049.0459999999998 290.26 1048.0059999999999 289.28499999999997Q1046.9659999999997 288.31 1046.9659999999997 286.62L1047.5639999999999 287.27H1046.9659999999997V290.0H1044.1839999999997V271.02H1046.9919999999997V275.102L1046.9139999999998 278.43H1047.5639999999999L1046.9659999999997 279.08Q1046.9659999999997 277.39 1048.0189999999998 276.41499999999996Q1049.0719999999997 275.44 1050.8139999999999 275.44Q1052.9719999999998 275.44 1054.2719999999997 276.89599999999996Q1055.5719999999997 278.352 1055.5719999999997 280.848V284.878Q1055.5719999999997 287.348 1054.2719999999997 288.804Q1052.9719999999998 290.26 1050.8139999999999 290.26ZM1049.8519999999999 287.816Q1051.2299999999998 287.816 1052.0099999999998 287.023Q1052.7899999999997 286.23 1052.7899999999997 284.722V280.978Q1052.7899999999997 279.47 1052.0099999999998 278.677Q1051.2299999999998 277.884 1049.8519999999999 277.884Q1048.5259999999998 277.884 1047.7589999999998 278.703Q1046.9919999999997 279.522 1046.9919999999997 280.978V284.722Q1046.9919999999997 286.178 1047.7589999999998 286.99699999999996Q1048.5259999999998 287.816 1049.8519999999999 287.816Z M1065.3999999999996 290.26Q1064.3599999999997 290.26 1063.7359999999996 289.649Q1063.1119999999996 289.038 1063.1119999999996 287.998Q1063.1119999999996 286.932 1063.7359999999996 286.295Q1064.3599999999997 285.658 1065.3999999999996 285.658Q1066.4659999999997 285.658 1067.0769999999998 286.295Q1067.6879999999996 286.932 1067.6879999999996 287.998Q1067.6879999999996 289.038 1067.0769999999998 289.649Q1066.4659999999997 290.26 1065.3999999999996 290.26Z M1079.9859999999996 290.26Q1077.8279999999995 290.26 1076.5279999999996 288.804Q1075.2279999999996 287.348 1075.2279999999996 284.878V280.848Q1075.2279999999996 278.352 1076.5279999999996 276.89599999999996Q1077.8279999999995 275.44 1079.9859999999996 275.44Q1081.7539999999997 275.44 1082.7939999999996 276.41499999999996Q1083.8339999999996 277.39 1083.8339999999996 279.08L1083.2359999999996 278.43H1083.8859999999995L1083.8079999999995 275.102V271.02H1086.6159999999995V290.0H1083.8339999999996V287.27H1083.2359999999996L1083.8339999999996 286.62Q1083.8339999999996 288.31 1082.7939999999996 289.28499999999997Q1081.7539999999997 290.26 1079.9859999999996 290.26ZM1080.9479999999996 287.816Q1082.2739999999997 287.816 1083.0409999999997 286.99699999999996Q1083.8079999999995 286.178 1083.8079999999995 284.722V280.978Q1083.8079999999995 279.522 1083.0409999999997 278.703Q1082.2739999999997 277.884 1080.9479999999996 277.884Q1079.5699999999995 277.884 1078.7899999999995 278.677Q1078.0099999999995 279.47 1078.0099999999995 280.978V284.722Q1078.0099999999995 286.23 1078.7899999999995 287.023Q1079.5699999999995 287.816 1080.9479999999996 287.816Z M1096.5999999999995 290.26Q1094.8579999999995 290.26 1093.5449999999996 289.571Q1092.2319999999995 288.882 1091.5299999999995 287.634Q1090.8279999999995 286.386 1090.8279999999995 284.722V280.978Q1090.8279999999995 279.288 1091.5299999999995 278.053Q1092.2319999999995 276.818 1093.5449999999996 276.129Q1094.8579999999995 275.44 1096.5999999999995 275.44Q1098.3679999999995 275.44 1099.6679999999994 276.129Q1100.9679999999994 276.818 1101.6699999999994 278.053Q1102.3719999999994 279.288 1102.3719999999994 280.978V283.526H1093.5319999999995V284.722Q1093.5319999999995 286.308 1094.3249999999994 287.14Q1095.1179999999995 287.972 1096.6259999999995 287.972Q1097.8479999999995 287.972 1098.6019999999994 287.543Q1099.3559999999995 287.114 1099.5379999999996 286.282H1102.3199999999995Q1102.0079999999996 288.102 1100.4479999999994 289.181Q1098.8879999999995 290.26 1096.5999999999995 290.26ZM1099.6679999999994 281.836V280.952Q1099.6679999999994 279.392 1098.8879999999995 278.534Q1098.1079999999995 277.676 1096.5999999999995 277.676Q1095.1179999999995 277.676 1094.3249999999994 278.534Q1093.5319999999995 279.392 1093.5319999999995 280.978V281.628L1099.8759999999995 281.602Z M1110.3539999999994 290.0 1105.6219999999994 275.7H1108.4819999999995L1111.4199999999994 284.852Q1111.7059999999994 285.658 1111.9269999999995 286.477Q1112.1479999999995 287.296 1112.2519999999995 287.764Q1112.3819999999994 287.296 1112.6029999999994 286.477Q1112.8239999999994 285.658 1113.0579999999993 284.852L1115.9439999999995 275.7H1118.7779999999993L1114.0459999999994 290.0Z"/></g>
</svg>
